<svg xmlns="http://www.w3.org/2000/svg" viewBox="0 0 178.06 88.26"><defs><style>.cls-1{fill:#dc5353;}.cls-2,.cls-4{fill:#3f0f24;}.cls-3{fill:#f8e08f;}.cls-4{font-size:48px;font-family:FuturaBT-Medium, Futura Md BT;font-weight:500;}.cls-5{fill:#fff;}</style></defs><title>Asset 3mdpi</title><g id="Layer_2" data-name="Layer 2"><g id="Layer_1-2" data-name="Layer 1"><path class="cls-1" d="M153.89,49.63c9.68,18.8-17.29,35.8-38.29,38.29C88.36,91.16,77.31,70.78,77.31,49.63S94.45,6.48,115.6,6.48,144.72,31.83,153.89,49.63Z"/><path class="cls-2" d="M166.91,24.23c-3.07,10.47-10,15.89-14.2,7.93-3-5.62-9.67-8.09-7.93-14.2S152.52,4.8,158.63,6.54,168.7,18.14,166.91,24.23Z"/><path class="cls-3" d="M145.14,9.26c-1.58,5.39-5.15,8.18-7.31,4.08-1.53-2.89-5-4.17-4.09-7.32s4-6.78,7.14-5.88S146.07,6.12,145.14,9.26Z"/><text class="cls-4" transform="translate(0 68.63)">can<tspan class="cls-5" x="77.95" y="0">cell</tspan></text></g></g></svg>